<svg width="30" height="28" viewBox="0 0 30 28" fill="none" xmlns="http://www.w3.org/2000/svg">
<path d="M16.5081 1.0174C16.2185 0.41744 15.6064 0.0356445 14.9341 0.0356445C14.2619 0.0356445 13.6553 0.41744 13.3601 1.0174L9.846 8.23333L1.99793 9.38962C1.3421 9.4878 0.795578 9.94595 0.593364 10.5732C0.391151 11.2004 0.555107 11.8931 1.02512 12.3567L6.71989 17.98L5.37544 25.9268C5.26614 26.5813 5.5394 27.2467 6.08046 27.634C6.62152 28.0212 7.33746 28.0703 7.92771 27.7594L14.9396 24.0233L21.9515 27.7594C22.5417 28.0703 23.2577 28.0267 23.7987 27.634C24.3398 27.2413 24.6131 26.5813 24.5038 25.9268L23.1538 17.98L28.8486 12.3567C29.3186 11.8931 29.488 11.2004 29.2804 10.5732C29.0727 9.94595 28.5316 9.4878 27.8758 9.38962L20.0223 8.23333L16.5081 1.0174Z" fill="#FF9F1C"/>
</svg>
