<svg width="22" height="22" viewBox="0 0 22 22" fill="none" xmlns="http://www.w3.org/2000/svg">
<path d="M10.9956 0.731201C11.3184 0.731201 11.6092 0.914401 11.7456 1.19702L11.7466 1.19897L14.4253 6.69995L14.5405 6.93726L14.8022 6.97534L20.7886 7.8562V7.85718C21.1012 7.90405 21.3592 8.12266 21.4585 8.42261C21.5563 8.71846 21.4769 9.04751 21.2534 9.26831L21.2524 9.26929L16.9106 13.5564L16.7261 13.739L16.769 13.9958L17.7983 20.0544C17.8493 20.3634 17.7209 20.6778 17.4604 20.8669C17.2374 21.0288 16.9481 21.0672 16.688 20.9734L16.5786 20.9255L11.2349 18.0779L10.9995 17.9529L10.7651 18.0779L5.42139 20.9255C5.13861 21.0745 4.79515 21.05 4.53662 20.865C4.28026 20.6813 4.1499 20.3647 4.20166 20.0535L5.22607 13.9949L5.27002 13.739L5.08447 13.5564L0.742676 9.26929V9.26831C0.521293 9.04977 0.441495 8.72008 0.538574 8.4187C0.633375 8.12464 0.891354 7.9036 1.20654 7.8562L7.18994 6.97534L7.45068 6.93726L7.56592 6.69995L10.2446 1.198C10.3865 0.911379 10.676 0.731253 10.9956 0.731201Z" fill="#FF9F1C" stroke="#FF9F1C"/>
</svg>
