<svg width="30" height="28" viewBox="0 0 30 28" fill="none" xmlns="http://www.w3.org/2000/svg">
<path d="M16.3559 1.0174C16.0662 0.41744 15.4541 0.0356445 14.7819 0.0356445C14.1097 0.0356445 13.503 0.41744 13.2079 1.0174L9.69378 8.23333L1.84571 9.38962C1.18988 9.4878 0.643356 9.94595 0.441142 10.5732C0.238929 11.2004 0.402886 11.8931 0.872896 12.3567L6.56767 17.98L5.22322 25.9268C5.11392 26.5813 5.38718 27.2467 5.92824 27.634C6.46929 28.0212 7.18524 28.0703 7.77549 27.7594L14.7874 24.0233L21.7993 27.7594C22.3895 28.0703 23.1055 28.0267 23.6465 27.634C24.1876 27.2413 24.4608 26.5813 24.3515 25.9268L23.0016 17.98L28.6964 12.3567C29.1664 11.8931 29.3358 11.2004 29.1282 10.5732C28.9205 9.94595 28.3794 9.4878 27.7236 9.38962L19.87 8.23333L16.3559 1.0174Z" fill="#FAFAFA"/>
</svg>
