<svg width="33" height="30" viewBox="0 0 33 30" fill="none" xmlns="http://www.w3.org/2000/svg">
<path d="M32.4999 14.9689C32.4999 15.9882 31.6664 16.7867 30.7217 16.7867H28.9434L28.9823 25.8587C28.9823 26.0116 28.9712 26.1645 28.9545 26.3174V27.2348C28.9545 28.4863 27.9598 29.5 26.7317 29.5H25.8426C25.7815 29.5 25.7204 29.5 25.6593 29.4943C25.5815 29.5 25.5037 29.5 25.4259 29.5L23.6198 29.4943H22.2862C21.0581 29.4943 20.0634 28.4807 20.0634 27.2292V25.87V22.2458C20.0634 21.2434 19.2687 20.4336 18.2851 20.4336H14.7286C13.7451 20.4336 12.9504 21.2434 12.9504 22.2458V25.87V27.2292C12.9504 28.4807 11.9557 29.4943 10.7276 29.4943H9.39393H7.62125C7.5379 29.4943 7.45454 29.4887 7.37119 29.483C7.3045 29.4887 7.23782 29.4943 7.17114 29.4943H6.28202C5.05392 29.4943 4.05922 28.4807 4.05922 27.2292V20.8866C4.05922 20.8357 4.05922 20.779 4.06478 20.7281V16.781H2.28654C1.28628 16.781 0.508301 15.9882 0.508301 14.9632C0.508301 14.4535 0.675011 14.0005 1.064 13.6041L15.3066 0.953037C15.6956 0.55663 16.1401 0.5 16.5291 0.5C16.9181 0.5 17.3627 0.613259 17.6961 0.896407L31.8886 13.6097C32.3332 14.0062 32.5555 14.4592 32.4999 14.9689Z" fill="white"/>
</svg>
