<svg width="30" height="30" viewBox="0 0 30 30" fill="none" xmlns="http://www.w3.org/2000/svg">
<path d="M17.399 1.70849C16.421 -0.0690088 13.847 -0.0690088 12.8675 1.70849C11.5794 4.04907 10.5176 6.50721 9.69648 9.04949C9.65776 9.14896 9.58964 9.23425 9.5012 9.29402C9.41277 9.35378 9.30821 9.38516 9.20148 9.38399C7.00093 9.44119 4.80754 9.65977 2.63898 10.038C0.633483 10.3875 -0.250017 12.7935 1.27398 14.283C1.46598 14.471 1.65998 14.658 1.85598 14.844C3.3242 16.2342 4.8788 17.5303 6.51048 18.7245C6.58461 18.7737 6.64077 18.8456 6.67052 18.9295C6.70028 19.0133 6.70202 19.1046 6.67548 19.1895C5.85174 21.661 5.26313 24.2048 4.91748 26.787C4.63248 28.923 6.89448 30.234 8.65998 29.328C10.8033 28.2295 12.8527 26.9567 14.7875 25.5225C14.8888 25.4508 15.0099 25.4123 15.134 25.4123C15.2581 25.4123 15.3792 25.4508 15.4805 25.5225C17.4141 26.9584 19.4637 28.2313 21.608 29.328C23.3735 30.234 25.6355 28.923 25.3505 26.787C25.0053 24.2049 24.4172 21.6611 23.594 19.1895C23.5674 19.1046 23.5692 19.0133 23.5989 18.9295C23.6287 18.8456 23.6849 18.7737 23.759 18.7245C25.6077 17.3713 27.3572 15.8875 28.994 14.2845C30.518 12.7935 29.6345 10.3875 27.629 10.038C25.4599 9.6597 23.266 9.44111 21.065 9.38399C20.9585 9.38486 20.8543 9.35333 20.7661 9.29359C20.678 9.23384 20.6101 9.14871 20.5715 9.04949C19.753 6.50623 18.6895 4.04785 17.399 1.70849Z" fill="#FF9F1C"/>
</svg>
