<svg width="28" height="30" viewBox="0 0 28 30" fill="none" xmlns="http://www.w3.org/2000/svg">
<path d="M19.8662 18C21.7989 18.0001 23.657 18.7463 25.0529 20.083C26.4488 21.4197 27.2748 23.2436 27.3587 25.1745L27.3662 25.5V27C27.3665 27.7569 27.0806 28.4858 26.566 29.0408C26.0513 29.5958 25.3459 29.9357 24.5912 29.9925L24.3662 30H3.36621C2.60935 30.0002 1.88036 29.7144 1.32539 29.1998C0.770417 28.6851 0.430476 27.9797 0.373711 27.225L0.366211 27V25.5C0.366323 23.5673 1.11252 21.7093 2.4492 20.3133C3.78588 18.9174 5.60984 18.0914 7.54071 18.0075L7.86621 18H19.8662ZM13.8662 0C15.8553 0 17.763 0.790176 19.1695 2.1967C20.576 3.60322 21.3662 5.51088 21.3662 7.5C21.3662 9.48912 20.576 11.3968 19.1695 12.8033C17.763 14.2098 15.8553 15 13.8662 15C11.8771 15 9.96943 14.2098 8.56291 12.8033C7.15639 11.3968 6.36621 9.48912 6.36621 7.5C6.36621 5.51088 7.15639 3.60322 8.56291 2.1967C9.96943 0.790176 11.8771 0 13.8662 0Z" fill="white"/>
</svg>
