<svg width="30" height="30" viewBox="0 0 30 30" fill="none" xmlns="http://www.w3.org/2000/svg">
<path d="M10.5269 5.172C11.4239 2.547 15.0509 2.4675 16.1144 4.9335L16.2044 5.1735L17.4149 8.7135C17.6923 9.52535 18.1406 10.2683 18.7295 10.8921C19.3184 11.516 20.0343 12.0063 20.8289 12.33L21.1544 12.4515L24.6944 13.6605C27.3194 14.5575 27.3989 18.1845 24.9344 19.248L24.6944 19.338L21.1544 20.5485C20.3422 20.8257 19.599 21.2739 18.9749 21.8629C18.3508 22.4518 17.8602 23.1678 17.5364 23.9625L17.4149 24.2865L16.2059 27.828C15.3089 30.453 11.6819 30.5325 10.6199 28.068L10.5269 27.828L9.31787 24.288C9.04064 23.4759 8.59243 22.7327 8.00348 22.1085C7.41453 21.4844 6.69856 20.9938 5.90387 20.67L5.57987 20.5485L2.03987 19.3395C-0.586633 18.4425 -0.666132 14.8155 1.79987 13.7535L2.03987 13.6605L5.57987 12.4515C6.39172 12.1741 7.13463 11.7258 7.7585 11.1369C8.38237 10.5479 8.87269 9.83204 9.19637 9.0375L9.31787 8.7135L10.5269 5.172ZM25.3664 2.71031e-07C25.647 -3.53958e-07 25.922 0.0787174 26.1601 0.227207C26.3982 0.375697 26.5899 0.588004 26.7134 0.84L26.7854 1.0155L27.3104 2.5545L28.8509 3.0795C29.1321 3.17504 29.3786 3.35192 29.5592 3.58772C29.7398 3.82352 29.8463 4.10763 29.8653 4.40403C29.8842 4.70044 29.8148 4.9958 29.6657 5.25268C29.5166 5.50957 29.2946 5.71641 29.0279 5.847L28.8509 5.919L27.3119 6.444L26.7869 7.9845C26.6912 8.26564 26.5141 8.51205 26.2783 8.69249C26.0424 8.87293 25.7582 8.97929 25.4618 8.99808C25.1654 9.01688 24.8701 8.94727 24.6133 8.79807C24.3565 8.64887 24.1498 8.4268 24.0194 8.16L23.9474 7.9845L23.4224 6.4455L21.8819 5.9205C21.6006 5.82496 21.3541 5.64808 21.1735 5.41228C20.9929 5.17648 20.8864 4.89237 20.8675 4.59597C20.8485 4.29956 20.918 4.0042 21.067 3.74732C21.2161 3.49043 21.4381 3.28359 21.7049 3.153L21.8819 3.081L23.4209 2.556L23.9459 1.0155C24.047 0.719138 24.2384 0.461863 24.4931 0.279748C24.7479 0.0976335 25.0532 -0.000187922 25.3664 2.71031e-07Z" fill="white"/>
</svg>
