<svg width="31" height="30" viewBox="0 0 31 30" fill="none" xmlns="http://www.w3.org/2000/svg">
<path d="M13.2438 0.666003C13.7783 0.232421 14.4456 -0.00421143 15.1338 -0.00421143C15.822 -0.00421143 16.4893 0.232421 17.0238 0.666003L28.4658 9.936C28.9861 10.3573 29.4058 10.8894 29.6943 11.4935C29.9829 12.0976 30.133 12.7585 30.1338 13.428V27C30.1338 27.7957 29.8177 28.5587 29.2551 29.1213C28.6925 29.6839 27.9294 30 27.1338 30H22.6338C21.8381 30 21.0751 29.6839 20.5125 29.1213C19.9499 28.5587 19.6338 27.7957 19.6338 27V19.5C19.6338 19.1022 19.4758 18.7206 19.1944 18.4393C18.9131 18.158 18.5316 18 18.1338 18H12.1338C11.736 18 11.3544 18.158 11.0731 18.4393C10.7918 18.7206 10.6338 19.1022 10.6338 19.5V27C10.6338 27.7957 10.3177 28.5587 9.75511 29.1213C9.1925 29.6839 8.42944 30 7.63379 30H3.13379C2.33814 30 1.57508 29.6839 1.01247 29.1213C0.449859 28.5587 0.133789 27.7957 0.133789 27V13.431C0.133657 12.7605 0.283357 12.0985 0.571948 11.4932C0.860538 10.888 1.28072 10.355 1.80179 9.933L13.2438 0.666003Z" fill="#FF9F1C"/>
</svg>
